<svg width="72" height="64" viewBox="0 0 72 64" fill="none" xmlns="http://www.w3.org/2000/svg">
<mask id="path-1-outside-1_18_5412" maskUnits="userSpaceOnUse" x="23" y="18" width="26" height="27" fill="black">
<rect fill="white" x="23" y="18" width="26" height="27"/>
<path fill-rule="evenodd" clip-rule="evenodd" d="M44.6428 24.1437C44.3569 24.1437 44.0867 24.2018 43.832 24.296C43.7079 22.8913 42.5435 21.7866 41.1071 21.7866C40.3829 21.7866 39.7291 22.0726 39.2388 22.5298C38.7863 21.6261 37.8637 21.0008 36.7858 21.0008C35.9043 21.0008 35.1279 21.4236 34.6249 22.0694C34.0309 21.3073 33.0583 20.8561 31.9802 21.0416C30.6382 21.2757 29.7143 22.5392 29.7143 23.9V28.8577H28.2371C26.4487 28.8577 25 30.3064 25 32.0947V32.1026C25 33.0359 25.4038 33.9253 26.1046 34.538L30.7482 38.6016C31.0907 38.9002 31.2856 39.3308 31.2856 39.7848V43H43.8573V39.7801C43.8573 39.3103 43.9278 38.842 44.0662 38.3927L45.6423 34.1152C46.5396 31.6766 47 29.0981 47 26.5006C47 25.1995 45.944 24.1436 44.6428 24.1436"/>
</mask>
<path fill-rule="evenodd" clip-rule="evenodd" d="M44.6428 24.1437C44.3569 24.1437 44.0867 24.2018 43.832 24.296C43.7079 22.8913 42.5435 21.7866 41.1071 21.7866C40.3829 21.7866 39.7291 22.0726 39.2388 22.5298C38.7863 21.6261 37.8637 21.0008 36.7858 21.0008C35.9043 21.0008 35.1279 21.4236 34.6249 22.0694C34.0309 21.3073 33.0583 20.8561 31.9802 21.0416C30.6382 21.2757 29.7143 22.5392 29.7143 23.9V28.8577H28.2371C26.4487 28.8577 25 30.3064 25 32.0947V32.1026C25 33.0359 25.4038 33.9253 26.1046 34.538L30.7482 38.6016C31.0907 38.9002 31.2856 39.3308 31.2856 39.7848V43H43.8573V39.7801C43.8573 39.3103 43.9278 38.842 44.0662 38.3927L45.6423 34.1152C46.5396 31.6766 47 29.0981 47 26.5006C47 25.1995 45.944 24.1436 44.6428 24.1436" fill="#FCFCFD"/>
<path d="M43.832 24.296L41.8398 24.4721L42.0703 27.0799L44.5258 26.1718L43.832 24.296ZM39.2388 22.5298L37.4504 23.4253L38.6474 25.8156L40.6026 23.9926L39.2388 22.5298ZM34.6249 22.0694L33.0475 23.299L34.6255 25.3234L36.2028 23.2984L34.6249 22.0694ZM31.9802 21.0416L31.6411 19.0705L31.6365 19.0713L31.9802 21.0416ZM29.7143 28.8577V30.8577H31.7143V28.8577H29.7143ZM26.1046 34.538L27.4217 33.033L27.421 33.0323L26.1046 34.538ZM30.7482 38.6016L29.4311 40.1067L29.434 40.1092L30.7482 38.6016ZM31.2856 43H29.2856V45H31.2856V43ZM43.8573 43V45H45.8573V43H43.8573ZM44.0662 38.3927L42.1896 37.7012L42.1708 37.7522L42.1548 37.804L44.0662 38.3927ZM45.6423 34.1152L47.5189 34.8067L47.5192 34.8059L45.6423 34.1152ZM44.6428 22.1437C44.0808 22.1437 43.5749 22.2587 43.1383 22.4202L44.5258 26.1718C44.5985 26.1449 44.633 26.1437 44.6428 26.1437V22.1437ZM45.8243 24.1199C45.6112 21.7097 43.6065 19.7866 41.1071 19.7866V23.7866C41.4805 23.7866 41.8045 24.0729 41.8398 24.4721L45.8243 24.1199ZM41.1071 19.7866C39.8422 19.7866 38.7095 20.2888 37.8749 21.067L40.6026 23.9926C40.7487 23.8564 40.9235 23.7866 41.1071 23.7866V19.7866ZM41.0271 21.6343C40.2565 20.0955 38.6665 19.0008 36.7858 19.0008V23.0008C37.0609 23.0008 37.316 23.1568 37.4504 23.4253L41.0271 21.6343ZM36.7858 19.0008C35.2429 19.0008 33.9007 19.7444 33.0471 20.8404L36.2028 23.2984C36.3552 23.1028 36.5656 23.0008 36.7858 23.0008V19.0008ZM36.2023 20.8398C35.1918 19.5435 33.5031 18.7502 31.6411 19.0705L32.3193 23.0126C32.6135 22.962 32.87 23.0712 33.0475 23.299L36.2023 20.8398ZM31.6365 19.0713C29.2016 19.4961 27.7143 21.7114 27.7143 23.9H31.7143C31.7143 23.6664 31.7959 23.4401 31.9257 23.2723C32.0507 23.1108 32.1926 23.0347 32.324 23.0118L31.6365 19.0713ZM27.7143 23.9V28.8577H31.7143V23.9H27.7143ZM29.7143 26.8577H28.2371V30.8577H29.7143V26.8577ZM28.2371 26.8577C25.3442 26.8577 23 29.2018 23 32.0947H27C27 31.4111 27.5532 30.8577 28.2371 30.8577V26.8577ZM23 32.0947V32.1026H27V32.0947H23ZM23 32.1026C23 33.6121 23.6524 35.0507 24.7882 36.0437L27.421 33.0323C27.1552 32.8 27 32.4597 27 32.1026H23ZM24.7875 36.0431L29.4311 40.1067L32.0653 37.0965L27.4217 33.033L24.7875 36.0431ZM29.434 40.1092C29.3388 40.0263 29.2856 39.9062 29.2856 39.7848H33.2856C33.2856 38.7554 32.8426 37.7741 32.0624 37.094L29.434 40.1092ZM29.2856 39.7848V43H33.2856V39.7848H29.2856ZM31.2856 45H43.8573V41H31.2856V45ZM45.8573 43V39.7801H41.8573V43H45.8573ZM45.8573 39.7801C45.8573 39.51 45.8979 39.2401 45.9776 38.9814L42.1548 37.804C41.9577 38.4439 41.8573 39.1106 41.8573 39.7801H45.8573ZM45.9429 39.0842L47.5189 34.8067L43.7656 33.4238L42.1896 37.7012L45.9429 39.0842ZM47.5192 34.8059C48.4978 32.1467 49 29.3343 49 26.5006H45C45 28.8618 44.5815 31.2066 43.7653 33.4246L47.5192 34.8059ZM49 26.5006C49 24.0949 47.0485 22.1436 44.6428 22.1436V26.1436C44.8395 26.1436 45 26.3042 45 26.5006H49Z" fill="#0B0B0D" mask="url(#path-1-outside-1_18_5412)"/>
</svg>
