<svg width="153" height="40" viewBox="0 0 153 40" fill="none" xmlns="http://www.w3.org/2000/svg">
<path d="M62.032 29.288C64.96 29.288 67.384 28.232 68.968 26.288L66.472 23.984C65.344 25.304 63.928 25.976 62.248 25.976C59.104 25.976 56.872 23.768 56.872 20.6C56.872 17.432 59.104 15.224 62.248 15.224C63.928 15.224 65.344 15.896 66.472 17.192L68.968 14.888C67.384 12.968 64.96 11.912 62.056 11.912C56.824 11.912 52.936 15.536 52.936 20.6C52.936 25.664 56.824 29.288 62.032 29.288ZM76.4438 15.896C74.3798 15.896 72.2918 16.448 70.8758 17.456L72.2198 20.072C73.1558 19.328 74.5718 18.872 75.9398 18.872C77.9558 18.872 78.9158 19.808 78.9158 21.416H75.9398C72.0038 21.416 70.3958 23 70.3958 25.28C70.3958 27.512 72.1958 29.192 75.2198 29.192C77.1158 29.192 78.4598 28.568 79.1558 27.392V29H82.6598V21.632C82.6598 17.72 80.3798 15.896 76.4438 15.896ZM76.1558 26.672C74.8358 26.672 74.0438 26.048 74.0438 25.112C74.0438 24.248 74.5958 23.6 76.3478 23.6H78.9158V24.92C78.4838 26.096 77.4038 26.672 76.1558 26.672ZM93.8963 15.896C92.1443 15.896 90.6323 16.496 89.6243 17.6V16.088H86.0483V29H89.7923V22.616C89.7923 20.24 91.0883 19.136 92.8883 19.136C94.5443 19.136 95.5043 20.096 95.5043 22.184V29H99.2483V21.608C99.2483 17.672 96.9443 15.896 93.8963 15.896ZM111.624 16.088L107.928 24.872L104.352 16.088H100.488L105.912 29H109.776L115.224 16.088H111.624ZM121.538 15.896C119.474 15.896 117.386 16.448 115.97 17.456L117.314 20.072C118.25 19.328 119.666 18.872 121.034 18.872C123.05 18.872 124.01 19.808 124.01 21.416H121.034C117.098 21.416 115.49 23 115.49 25.28C115.49 27.512 117.29 29.192 120.314 29.192C122.21 29.192 123.554 28.568 124.25 27.392V29H127.754V21.632C127.754 17.72 125.474 15.896 121.538 15.896ZM121.25 26.672C119.93 26.672 119.138 26.048 119.138 25.112C119.138 24.248 119.69 23.6 121.442 23.6H124.01V24.92C123.578 26.096 122.498 26.672 121.25 26.672ZM135.486 29.192C139.35 29.192 141.582 27.488 141.582 25.088C141.582 20 133.782 22.136 133.782 19.928C133.782 19.256 134.502 18.728 136.182 18.728C137.358 18.728 138.63 18.968 139.902 19.688L141.15 17.024C139.926 16.304 137.958 15.896 136.182 15.896C132.414 15.896 130.206 17.624 130.206 20.072C130.206 25.232 138.006 23.072 138.006 25.184C138.006 25.904 137.358 26.36 135.63 26.36C134.046 26.36 132.294 25.856 131.142 25.112L129.894 27.8C131.094 28.592 133.302 29.192 135.486 29.192Z" fill="black"/>
<path d="M16 2.3094C18.4752 0.880338 21.5248 0.880338 24 2.3094L33.3205 7.6906C35.7957 9.11966 37.3205 11.7607 37.3205 14.6188V25.3812C37.3205 28.2393 35.7957 30.8803 33.3205 32.3094L24 37.6906C21.5248 39.1197 18.4752 39.1197 16 37.6906L6.67949 32.3094C4.20428 30.8803 2.67949 28.2393 2.67949 25.3812V14.6188C2.67949 11.7607 4.20428 9.11966 6.67949 7.6906L16 2.3094Z" fill="url(#paint0_linear_2_551)"/>
<defs>
<linearGradient id="paint0_linear_2_551" x1="20" y1="0" x2="20" y2="40" gradientUnits="userSpaceOnUse">
<stop stop-color="#7B32F3"/>
<stop offset="1" stop-color="#28C1F1"/>
</linearGradient>
</defs>
</svg>
