<svg width="72" height="64" viewBox="0 0 72 64" fill="none" xmlns="http://www.w3.org/2000/svg">
<path d="M36.0985 36.4369L33.8677 32.573L40.8313 28.5637L43.0735 32.4473L41.9392 38.0356L36.0985 36.4369ZM32.8677 30.841L25.3749 17.8631C24.2654 15.9415 24.9238 13.4843 26.8455 12.3749C28.7671 11.2654 31.2243 11.9238 32.3337 13.8454L39.8313 26.8316L32.8677 30.841Z" fill="#FCFCFD" stroke="#0B0B0D" stroke-width="2"/>
<path d="M20 55H48.9306C50.6258 55 52 53.6258 52 51.9306V51.9306C52 50.2353 50.6258 48.8611 48.9306 48.8611H30.8152C28.9205 48.8611 27.3846 47.3252 27.3846 45.4306V45.4306C27.3846 43.5359 28.9205 42 30.8152 42H41.1692" stroke="white" stroke-width="2"/>
</svg>
